# xmcd
#
# Track frame offsets:
#	150
#	20598
#	37896
#	55944
#	80292
#	107715
#	128463
#	152886
#	176934
#	200307
#	223530
#	251403
#	278676
#	306399
#	323922
#
# Disc length: 4773 seconds
#
# Revision: 0
# Processed by: cddbd v1.5.2PL0 Copyright (c) Steve Scherf et al.
# Submitted via: EZCDAudioConverter 1.3.4.1
#
DISCID=ca12a30f
DTITLE=Various Artist - Grooveyard Records - Best Of (Volume 2 )
DYEAR=2013
DGENRE=Blues/Rock/Bluesrock
TTITLE0=Snake Head Ritual - Nothern Boogie
TTITLE1=Johnny Hunkins - River Is Rising
TTITLE2=Vince Hawkins and Company Slave - I'm A Gambler
TTITLE3=Tony Spinner - Dust And Ash
TTITLE4=Gonna Be More SuspiciousBlindstone - Gonna Be More Suspicious
TTITLE5=Dirty Dave Osti - Pull The Trigger (On Your Love)
TTITLE6=Peter Martinsson Group - Forgiven
TTITLE7=Scarlet Runner - State Of Affairs
TTITLE8=Bryce Janey - Another Fine Day
TTITLE9=The Janeys - Get Down With The Blues
TTITLE10=Craig Erickson - In The Sky
TTITLE11=Blindside Blues Band - Maybe I'm A Leo
TTITLE12=Stone Machine - Bye Baby Bye
TTITLE13=Bugs Henderson - Thirteen Ways
TTITLE14=Craig Erickson - Angel-Beautiful Venus
EXTD=
EXTT0=
EXTT1=
EXTT2=
EXTT3=
EXTT4=
EXTT5=
EXTT6=
EXTT7=
EXTT8=
EXTT9=
EXTT10=
EXTT11=
EXTT12=
EXTT13=
EXTT14=
PLAYORDER=
